<?xml version="1.0" encoding="utf-8"?>
<!-- Generator: Adobe Illustrator 15.0.0, SVG Export Plug-In . SVG Version: 6.00 Build 0)  -->
<!DOCTYPE svg PUBLIC "-//W3C//DTD SVG 1.1//EN" "http://www.w3.org/Graphics/SVG/1.1/DTD/svg11.dtd">
<svg version="1.1" id="Calque_1" xmlns="http://www.w3.org/2000/svg" xmlns:xlink="http://www.w3.org/1999/xlink" x="0px" y="0px"
	 width="89.329px" height="89.33px" viewBox="0 0 89.329 89.33" enable-background="new 0 0 89.329 89.33" xml:space="preserve">
<g>
	<path fill="#D9DADB" d="M84.329,77.886c0,3.559-2.886,6.444-6.443,6.444H13.443c-3.559,0-6.444-2.886-6.444-6.444V13.444
		C6.999,9.885,9.884,7,13.443,7h64.441c3.56,0,6.444,2.885,6.444,6.444V77.886L84.329,77.886z"/>
	<path fill="#133754" d="M77.885,88.33H13.443c-5.759,0-10.444-4.686-10.444-10.444V13.444C2.999,7.685,7.684,3,13.443,3h64.441
		c5.759,0,10.444,4.685,10.444,10.444v64.442C88.329,83.645,83.643,88.33,77.885,88.33z M13.443,11
		c-1.348,0-2.444,1.096-2.444,2.444v64.442c0,1.348,1.096,2.444,2.444,2.444h64.442c1.348,0,2.443-1.097,2.443-2.444V13.444
		c0-1.348-1.097-2.444-2.444-2.444H13.443z"/>
</g>
</svg>
