<?xml version="1.0" encoding="utf-8"?>
<!-- Generator: Adobe Illustrator 15.0.0, SVG Export Plug-In . SVG Version: 6.00 Build 0)  -->
<!DOCTYPE svg PUBLIC "-//W3C//DTD SVG 1.1//EN" "http://www.w3.org/Graphics/SVG/1.1/DTD/svg11.dtd">
<svg version="1.1" id="Calque_1" xmlns="http://www.w3.org/2000/svg" xmlns:xlink="http://www.w3.org/1999/xlink" x="0px" y="0px"
	 width="89.329px" height="89.33px" viewBox="0 0 89.329 89.33" enable-background="new 0 0 89.329 89.33" xml:space="preserve">
<g>
	<path fill="#FAFBF8" d="M83.329,76.886c0,3.559-2.885,6.444-6.443,6.444H12.443C8.885,83.33,6,80.444,6,76.886V12.444
		C6,8.885,8.885,6,12.443,6h64.442c3.559,0,6.443,2.885,6.443,6.444V76.886L83.329,76.886z"/>
	<path fill="#133754" d="M76.885,87.33H12.443C6.685,87.33,2,82.645,2,76.886V12.444C2,6.685,6.685,2,12.443,2h64.442
		c5.758,0,10.443,4.685,10.443,10.444v64.442C87.329,82.645,82.643,87.33,76.885,87.33z M12.443,10C11.096,10,10,11.096,10,12.444
		v64.442c0,1.348,1.096,2.444,2.444,2.444h64.442c1.348,0,2.443-1.097,2.443-2.444V12.444c0-1.348-1.096-2.444-2.443-2.444H12.443z"
		/>
</g>
</svg>
